<?xml version="1.0" standalone="no"?><svg version="1.0" xmlns="http://www.w3.org/2000/svg" width="810" height="810" viewBox="-90 -90 990 990" preserveAspectRatio="xMidYMid meet"><metadata>MDM</metadata><g transform="translate(-2.09712,147.06512) matrix(0.125,0,0,-0.125,-145.71428,992.36219)" fill="#000000" stroke="none"><path d="m 1182.5,3140.5 720,720 1,4040 1750,-1759 501,501 -1742,1748 442,5 -727,720 -945,0 z"/><path d="m 3377.5,8395.4 2076,0 720,720 -3516,0 z"/><path d="m 5977.5,8395.4 469,-5 -2524,-2520 497,-497 2518,2504 5,-473 720,722 0,989 -965,0 z"/><path d="m 6942.5,6880.4 0,-2060 720,-720 -3,3495 z"/><path d="m 4683.5,5110.5 1742,-1750 -4038,-5 -718,-720 5993,0 0,940 -715,710 -10,-434 -1755,1754 z"/></g></svg>