<?xml version="1.0" encoding="UTF-8" standalone="no"?>
<!-- Created with Inkscape (http://www.inkscape.org/) -->

<svg
   xmlns:dc="http://purl.org/dc/elements/1.1/"
   xmlns:cc="http://creativecommons.org/ns#"
   xmlns:rdf="http://www.w3.org/1999/02/22-rdf-syntax-ns#"
   xmlns:svg="http://www.w3.org/2000/svg"
   xmlns="http://www.w3.org/2000/svg"
   xmlns:sodipodi="http://sodipodi.sourceforge.net/DTD/sodipodi-0.dtd"
   xmlns:inkscape="http://www.inkscape.org/namespaces/inkscape"
   width="800"
   height="800"
   id="svg3300"
   version="1.1"
   inkscape:version="0.48+devel r13149"
   viewBox="-90 -90 980 980"
   sodipodi:docname="LUI3_.svg">
  <defs
     id="defs3302" />
  <sodipodi:namedview
     id="base"
     pagecolor="#ffffff"
     bordercolor="#666666"
     borderopacity="1.0"
     inkscape:pageopacity="0.0"
     inkscape:pageshadow="2"
     inkscape:zoom="0.7"
     inkscape:cx="565.54936"
     inkscape:cy="534.6823"
     inkscape:document-units="px"
     inkscape:current-layer="layer1"
     showgrid="true"
     showguides="false"
     inkscape:window-width="1920"
     inkscape:window-height="1018"
     inkscape:window-x="-8"
     inkscape:window-y="-8"
     inkscape:window-maximized="1">
    <inkscape:grid
       type="xygrid"
       id="grid3308" />
  </sodipodi:namedview>
  <metadata
     id="metadata3305">
    <rdf:RDF>
      <cc:Work
         rdf:about="">
        <dc:format>image/svg+xml</dc:format>
        <dc:type
           rdf:resource="http://purl.org/dc/dcmitype/StillImage" />
        <dc:title></dc:title>
      </cc:Work>
    </rdf:RDF>
  </metadata>
  <g
     inkscape:label="圖層 1"
     inkscape:groupmode="layer"
     id="layer1"
     transform="translate(0,-252.36219)">
    <path
       style="fill:#000000"
       d="m 163.54963,320.19604 c 0,-174.82143 0.25545,-317.8571429 0.56767,-317.8571429 0.31222,0 21.84794,22.4978229 47.85714,49.9951619 l 47.28947,49.995161 0.002,153.93341 c 9e-4,84.66338 0.42724,184.30841 0.94741,221.43341 l 0.94577,67.5 68.81773,0 c 37.84974,0 100.74484,-0.42644 139.76686,-0.94764 l 70.94908,-0.94766 0,-218.33187 0,-218.33187 50.14973,-52.149051 C 618.42457,25.80597 641.246,2.3388971 641.5565,2.3388971 c 0.31051,0 0.56456,143.0357129 0.56456,317.8571429 l 0,317.85714 -239.28572,0 -239.28571,0 0,-317.85714 z"
       id="path3266"
       inkscape:connector-curvature="0"
       transform="translate(-5e-6,252.36219)" />
    <path
       style="fill:#000000"
       d="m 291.04963,799.83891 -290.35714571,-0.36406 0,-277.8537 c 0,-152.81952 0.24970457,-277.85368 0.55489881,-277.85368 0.3051945,0 22.1623369,22.817 48.5714279,50.70445 l 48.01653,50.70446 0,122.63317 c 0,67.44825 0.424429,146.76908 0.943176,176.2685 l 0.943176,53.63532 70.842537,0.89986 c 38.9634,0.49492 156.02111,1.6091 260.12825,2.47594 104.10715,0.86684 189.36689,1.66336 189.4661,1.77004 0.0992,0.10672 0.48523,22.21183 0.85785,49.12254 l 0.67745,48.92858 -20.14355,-0.35368 c -11.07896,-0.19452 -150.80427,-0.5175 -310.5007,-0.71774 z"
       id="path3268"
       inkscape:connector-curvature="0"
       transform="translate(-5e-6,252.36219)" />
    <path
       style="fill:#000000"
       d="m 701.54432,754.48175 c 0.93201,-64.36855 3.44787,-343.56451 3.44023,-381.77823 l -0.006,-31.77823 46.78571,-48.7846 46.78572,-48.7846 0.36076,277.58302 c 0.19841,152.67067 0.18453,277.75926 -0.0308,277.97463 -0.21538,0.21539 -22.35285,0.59201 -49.19437,0.83696 l -48.80277,0.44534 0.66192,-45.71429 z"
       id="path3270"
       inkscape:connector-curvature="0"
       transform="translate(-5e-6,252.36219)" />
  </g>
</svg>
