<?xml version="1.0" encoding="UTF-8" standalone="no"?>
<!-- Created with Inkscape (http://www.inkscape.org/) -->

<svg
   xmlns:dc="http://purl.org/dc/elements/1.1/"
   xmlns:cc="http://creativecommons.org/ns#"
   xmlns:rdf="http://www.w3.org/1999/02/22-rdf-syntax-ns#"
   xmlns:svg="http://www.w3.org/2000/svg"
   xmlns="http://www.w3.org/2000/svg"
   xmlns:sodipodi="http://sodipodi.sourceforge.net/DTD/sodipodi-0.dtd"
   xmlns:inkscape="http://www.inkscape.org/namespaces/inkscape"
   width="800"
   height="800"
   id="svg3300"
   version="1.1"
   inkscape:version="0.48+devel r13149"
   viewBox="-90 -90 980 980"
   sodipodi:docname="LUI2_.svg">
  <defs
     id="defs3302" />
  <sodipodi:namedview
     id="base"
     pagecolor="#ffffff"
     bordercolor="#666666"
     borderopacity="1.0"
     inkscape:pageopacity="0.0"
     inkscape:pageshadow="2"
     inkscape:zoom="0.7"
     inkscape:cx="622.06569"
     inkscape:cy="566.81018"
     inkscape:document-units="px"
     inkscape:current-layer="layer1"
     showgrid="true"
     showguides="false"
     inkscape:window-width="1920"
     inkscape:window-height="1018"
     inkscape:window-x="-8"
     inkscape:window-y="-8"
     inkscape:window-maximized="1">
    <inkscape:grid
       type="xygrid"
       id="grid3308" />
  </sodipodi:namedview>
  <metadata
     id="metadata3305">
    <rdf:RDF>
      <cc:Work
         rdf:about="">
        <dc:format>image/svg+xml</dc:format>
        <dc:type
           rdf:resource="http://purl.org/dc/dcmitype/StillImage" />
        <dc:title></dc:title>
      </cc:Work>
    </rdf:RDF>
  </metadata>
  <g
     inkscape:label="圖層 1"
     inkscape:groupmode="layer"
     id="layer1"
     transform="translate(0,-252.36219)">
    <path
       style="fill:#000000"
       d="m 160.69248,321.27722 0,-318.2045508 39.28571,39.2662318 39.28572,39.266233 0,239.652596 0,239.6526 160.71429,0 160.71428,0 0,-239.6526 0,-239.652596 39.28572,-39.266233 39.28571,-39.2662318 0,318.2045508 0,318.20454 -239.28571,0 -239.28572,0 0,-318.20454 z"
       id="path3316"
       inkscape:connector-curvature="0"
       transform="translate(-5e-6,252.36219)" />
    <path
       style="fill:#000000"
       d="m 0.69248053,521.27722 0,-278.20455 39.28571447,39.26623 39.285714,39.26623 0,199.6526 0,199.6526 280.000001,0 280,0 0,39.28571 0,39.28572 -319.28572,0 -319.28570947,0 0,-278.20454 z"
       id="path3318"
       inkscape:connector-curvature="0"
       transform="translate(-5e-6,252.36219)" />
    <path
       style="fill:#000000"
       d="m 720.69248,560.54344 0,-238.93831 39.28572,-39.26623 39.28571,-39.26623 0,278.20455 0,278.20454 -39.28571,0 -39.28572,0 0,-238.93832 z"
       id="path3320"
       inkscape:connector-curvature="0"
       transform="translate(-5e-6,252.36219)" />
  </g>
</svg>
